<svg version="1.1" xmlns="http://www.w3.org/2000/svg" xmlns:xlink="http://www.w3.org/1999/xlink" viewBox="0 0 172 172"><g fill="none" fill-rule="nonzero" stroke="none" stroke-width="1" stroke-linecap="butt" stroke-linejoin="miter" stroke-miterlimit="10" stroke-dasharray="" stroke-dashoffset="0" font-family="none" font-weight="none" font-size="none" text-anchor="none" style="mix-blend-mode: normal"><path d="M0,172v-172h172v172z" fill="none"></path><g fill="#ffffff"><path d="M34.9375,10.75c-4.44728,0.01328 -8.04922,3.61522 -8.0625,8.0625v8.0625h61.8125c4.44728,0.01328 8.04922,3.61522 8.0625,8.0625v43c-0.01328,4.44728 -3.61522,8.04922 -8.0625,8.0625h-26.875v13.4375c0.00444,1.08723 -0.65504,2.06708 -1.66394,2.47229c-0.31957,0.15107 -0.67021,0.22479 -1.02356,0.21521c-0.71446,0.00341 -1.40128,-0.27585 -1.91065,-0.77685l-15.31665,-15.34815h-15.02271v67.1875c0.01328,4.44728 3.61522,8.04922 8.0625,8.0625h96.75c4.44728,-0.01328 8.04922,-3.61522 8.0625,-8.0625v-61.62354l-43.2677,43.2677c-0.26669,0.26959 -0.5867,0.48054 -0.93958,0.61939l-24.7019,9.48499c-0.30607,0.12693 -0.63448,0.19118 -0.96582,0.18896c-0.71446,0.00341 -1.40128,-0.27585 -1.91065,-0.77685c-0.75644,-0.75343 -0.98804,-1.88665 -0.58789,-2.87647l9.48499,-24.7019c0.13884,-0.35288 0.3498,-0.67289 0.61939,-0.93958l62.26917,-62.26916v-15.93604h-16.125c-4.44728,-0.01328 -8.04922,-3.61522 -8.0625,-8.0625v-18.8125zM120.9375,15.0752v14.4873c0,1.48427 1.20323,2.6875 2.6875,2.6875h12.76563zM13.4375,32.25c-1.48427,0 -2.6875,1.20323 -2.6875,2.6875v43c0,1.48427 1.20323,2.6875 2.6875,2.6875h29.5625c0.71301,0.00398 1.39716,0.28215 1.91065,0.77685l11.52685,11.55835v-9.64771c0,-1.48427 1.20323,-2.6875 2.6875,-2.6875h29.5625c1.48427,0 2.6875,-1.20323 2.6875,-2.6875v-43c0,-1.48427 -1.20323,-2.6875 -2.6875,-2.6875zM21.5,43h5.375v5.375h-5.375zM32.25,43h48.375v5.375h-48.375zM149.6969,51.22522l-7.60583,7.60583l11.39563,11.39038l7.60583,-7.60583zM21.5,53.75h59.125v5.375h-59.125zM138.29602,62.6261l-55.11474,55.11475l3.79504,3.79504l55.11475,-55.11474zM21.5,64.5h59.125v5.375h-59.125zM145.88611,70.21619l-55.10425,55.13049l3.80029,3.79504l55.099,-55.13049zM80.40979,122.54895l-2.12061,5.51148l5.96289,5.96289l5.51148,-2.12061zM76.18957,133.5404l-1.6377,4.22022l4.22022,-1.6377z"></path></g></g></svg>