<svg version="1.1" xmlns="http://www.w3.org/2000/svg" xmlns:xlink="http://www.w3.org/1999/xlink" viewBox="0 0 172 172"><g fill="none" fill-rule="nonzero" stroke="none" stroke-width="1" stroke-linecap="butt" stroke-linejoin="miter" stroke-miterlimit="10" stroke-dasharray="" stroke-dashoffset="0" font-family="none" font-weight="none" font-size="none" text-anchor="none" style="mix-blend-mode: normal"><path d="M0,172v-172h172v172z" fill="none"></path><g fill="#ffffff"><path d="M12.09375,2.6875c-5.19247,0.00592 -9.40033,4.21378 -9.40625,9.40625v61.8125c0.00592,5.19247 4.21378,9.40033 9.40625,9.40625h61.8125c5.19247,-0.00592 9.40033,-4.21378 9.40625,-9.40625v-61.8125c-0.00592,-5.19247 -4.21378,-9.40033 -9.40625,-9.40625zM98.09375,2.6875c-5.19247,0.00592 -9.40033,4.21378 -9.40625,9.40625v61.8125c0.00592,5.19247 4.21378,9.40033 9.40625,9.40625h61.8125c5.19247,-0.00592 9.40033,-4.21378 9.40625,-9.40625v-61.8125c-0.00592,-5.19247 -4.21378,-9.40033 -9.40625,-9.40625zM12.09375,8.0625h61.8125c2.2254,0.00241 4.02884,1.80585 4.03125,4.03125v61.8125c-0.00241,2.2254 -1.80585,4.02884 -4.03125,4.03125h-61.8125c-2.2254,-0.00241 -4.02884,-1.80585 -4.03125,-4.03125v-61.8125c0.00241,-2.2254 1.80585,-4.02884 4.03125,-4.03125zM98.09375,8.0625h61.8125c2.2254,0.00241 4.02884,1.80585 4.03125,4.03125v61.8125c-0.00241,2.2254 -1.80585,4.02884 -4.03125,4.03125h-61.8125c-2.2254,-0.00241 -4.02884,-1.80585 -4.03125,-4.03125v-61.8125c0.00241,-2.2254 1.80585,-4.02884 4.03125,-4.03125zM43,13.4375c-16.32692,0 -29.5625,13.23558 -29.5625,29.5625c0,16.32692 13.23558,29.5625 29.5625,29.5625c16.32692,0 29.5625,-13.23558 29.5625,-29.5625c-0.01851,-16.31924 -13.24326,-29.54399 -29.5625,-29.5625zM41.99416,18.8335c6.58372,-0.27402 12.99424,2.14991 17.74957,6.71141c4.75532,4.5615 7.44376,10.86568 7.44378,17.45509c-0.015,13.35217 -10.83533,24.1725 -24.1875,24.1875c-13.16167,-0.00095 -23.90679,-10.52565 -24.18052,-23.68447c-0.27373,-13.15882 10.02443,-24.12125 23.17468,-24.66954zM42.92126,29.56381c-1.45292,0.04259 -2.60868,1.23264 -2.60876,2.68619h-2.6875c-1.48427,0 -2.6875,1.20323 -2.6875,2.6875v8.0625c0,1.48427 1.20323,2.6875 2.6875,2.6875h8.0625v2.6875h-8.0625c-1.48427,0 -2.6875,1.20323 -2.6875,2.6875c0,1.48427 1.20323,2.6875 2.6875,2.6875h2.6875c0,1.48427 1.20323,2.6875 2.6875,2.6875c1.48427,0 2.6875,-1.20323 2.6875,-2.6875h2.6875c1.48427,0 2.6875,-1.20323 2.6875,-2.6875v-8.0625c0,-1.48427 -1.20323,-2.6875 -2.6875,-2.6875h-8.0625v-2.6875h8.0625c1.48427,0 2.6875,-1.20323 2.6875,-2.6875c0,-1.48427 -1.20323,-2.6875 -2.6875,-2.6875h-2.6875c-0.00004,-0.7264 -0.29413,-1.42184 -0.81525,-1.92788c-0.52112,-0.50604 -1.2249,-0.77959 -1.95098,-0.7583zM12.09375,88.6875c-5.19247,0.00592 -9.40033,4.21378 -9.40625,9.40625v61.8125c0.00592,5.19247 4.21378,9.40033 9.40625,9.40625h61.8125c5.19247,-0.00592 9.40033,-4.21378 9.40625,-9.40625v-61.8125c-0.00592,-5.19247 -4.21378,-9.40033 -9.40625,-9.40625zM98.09375,88.6875c-5.19255,0.00574 -9.40051,4.2137 -9.40625,9.40625v61.8125c0.00574,5.19255 4.2137,9.40051 9.40625,9.40625h61.8125c5.19255,-0.00574 9.40051,-4.2137 9.40625,-9.40625v-61.8125c-0.00574,-5.19255 -4.2137,-9.40051 -9.40625,-9.40625zM12.09375,94.0625h61.8125c2.2254,0.00241 4.02884,1.80585 4.03125,4.03125v61.8125c-0.00241,2.2254 -1.80585,4.02884 -4.03125,4.03125h-61.8125c-2.2254,-0.00241 -4.02884,-1.80585 -4.03125,-4.03125v-61.8125c0.00241,-2.2254 1.80585,-4.02884 4.03125,-4.03125zM98.09375,94.0625h61.8125c2.22563,0.00185 4.0294,1.80562 4.03125,4.03125v61.8125c-0.00185,2.22563 -1.80562,4.0294 -4.03125,4.03125h-61.8125c-2.22563,-0.00185 -4.0294,-1.80562 -4.03125,-4.03125v-61.8125c0.00185,-2.22563 1.80562,-4.0294 4.03125,-4.03125zM127.65625,104.8125c-5.19247,0.00592 -9.40033,4.21378 -9.40625,9.40625v4.03125h-5.375c-1.39781,-0.00005 -2.56229,1.07143 -2.67832,2.46442l-2.6875,32.25c-0.06239,0.74897 0.1917,1.48984 0.70061,2.04289c0.50891,0.55304 1.22615,0.86772 1.97771,0.8677h37.625c0.75156,0.00003 1.4688,-0.31465 1.97771,-0.8677c0.50891,-0.55304 0.76299,-1.29392 0.70061,-2.04289l-2.6875,-32.25c-0.11603,-1.39299 -1.2805,-2.46446 -2.67832,-2.46442h-5.375v-4.03125c-0.00592,-5.19247 -4.21378,-9.40033 -9.40625,-9.40625zM127.65625,110.1875h2.6875c2.2254,0.00241 4.02884,1.80585 4.03125,4.03125v4.03125h-10.75v-4.03125c0.00241,-2.2254 1.80585,-4.02884 4.03125,-4.03125zM115.34795,123.625h2.90205v2.6875c0,1.48427 1.20323,2.6875 2.6875,2.6875c1.48427,0 2.6875,-1.20323 2.6875,-2.6875v-2.6875h10.75v2.6875c0,1.48427 1.20323,2.6875 2.6875,2.6875c1.48427,0 2.6875,-1.20323 2.6875,-2.6875v-2.6875h2.90205l2.24002,26.875h-31.78415z"></path></g></g></svg>